<?xml version="1.0" encoding="utf-8"?>
<!-- Generator: Adobe Illustrator 27.9.4, SVG Export Plug-In . SVG Version: 9.03 Build 54784)  -->
<svg version="1.1" id="Layer_1" xmlns="http://www.w3.org/2000/svg" xmlns:xlink="http://www.w3.org/1999/xlink" x="0px" y="0px"
	 viewBox="0 0 638 214" style="enable-background:new 0 0 638 214;" xml:space="preserve">
<style type="text/css">
	.st0{fill:#58595B;}
	.st1{fill:#BFD633;}
	.st2{fill:#72BE46;}
	.st3{fill:#FCB81B;}
	.st4{fill:#F69022;}
	.st5{fill:#EE2A7B;}
	.st6{fill:#CB1855;}
</style>
<g>
	<g>
		<path class="st0" d="M206.7,139.2c-5.7,0-10.5-1.3-14.4-3.8s-6.9-6-8.9-10.5c-2-4.5-3.1-9.6-3.2-15.4c0.1-5.9,1.1-11.1,3.2-15.6
			c2.1-4.5,5.1-7.9,9-10.4c3.9-2.5,8.7-3.7,14.3-3.7c5.7,0,10.7,1.4,14.9,4.2c4.2,2.8,7.1,6.6,8.7,11.4l-7.5,2.4
			c-1.3-3.4-3.4-6-6.3-7.8c-2.9-1.9-6.1-2.8-9.8-2.8c-4.1,0-7.6,0.9-10.3,2.8c-2.7,1.9-4.7,4.5-6,7.9c-1.3,3.4-2,7.2-2,11.6
			c0.1,6.7,1.6,12.2,4.7,16.2c3.1,4.1,7.6,6.1,13.7,6.1c3.8,0,7.1-0.9,9.8-2.6c2.7-1.8,4.7-4.3,6.1-7.7l7.7,2.3
			c-2.1,5-5.1,8.8-9.2,11.4C217.1,137.9,212.3,139.2,206.7,139.2z"/>
		<path class="st0" d="M263,139.2c-5.6,0-10.4-1.3-14.3-3.8s-7-6-9.1-10.5c-2.1-4.5-3.2-9.6-3.2-15.4c0-5.9,1.1-11.1,3.2-15.5
			c2.2-4.4,5.2-7.9,9.2-10.4c4-2.5,8.7-3.7,14.2-3.7c5.6,0,10.4,1.3,14.4,3.8c4,2.5,7,6,9.1,10.5c2.1,4.5,3.2,9.6,3.2,15.4
			c0,5.9-1.1,11.1-3.2,15.6c-2.1,4.5-5.2,8-9.2,10.5S268.6,139.2,263,139.2z M263,131.8c6.3,0,10.9-2.1,14-6.2
			c3.1-4.2,4.6-9.6,4.6-16.2c0-6.8-1.5-12.2-4.6-16.3c-3.1-4-7.7-6-13.9-6c-4.2,0-7.7,0.9-10.4,2.8c-2.7,1.9-4.8,4.5-6.1,7.9
			c-1.3,3.4-2,7.2-2,11.6c0,6.8,1.6,12.2,4.7,16.3C252.3,129.8,256.9,131.8,263,131.8z"/>
		<path class="st0" d="M300.1,137.6V60.9h7.7v76.7H300.1z"/>
		<path class="st0" d="M344.9,139.2c-5.6,0-10.4-1.3-14.3-3.8s-7-6-9.1-10.5c-2.1-4.5-3.2-9.6-3.2-15.4c0-5.9,1.1-11.1,3.2-15.5
			c2.2-4.4,5.2-7.9,9.2-10.4c4-2.5,8.7-3.7,14.2-3.7c5.6,0,10.4,1.3,14.4,3.8c4,2.5,7,6,9.1,10.5c2.1,4.5,3.2,9.6,3.2,15.4
			c0,5.9-1.1,11.1-3.2,15.6c-2.1,4.5-5.2,8-9.2,10.5S350.4,139.2,344.9,139.2z M344.9,131.8c6.3,0,10.9-2.1,14-6.2
			c3.1-4.2,4.6-9.6,4.6-16.2c0-6.8-1.5-12.2-4.6-16.3c-3.1-4-7.7-6-13.9-6c-4.2,0-7.7,0.9-10.4,2.8c-2.7,1.9-4.8,4.5-6.1,7.9
			c-1.3,3.4-2,7.2-2,11.6c0,6.8,1.6,12.2,4.7,16.3C334.2,129.8,338.8,131.8,344.9,131.8z"/>
		<path class="st0" d="M380.9,137.6V81.3h6.9v13.6l-1.4-1.8c0.6-1.7,1.4-3.2,2.5-4.6c1-1.4,2.1-2.6,3.3-3.5c1.5-1.3,3.2-2.3,5.1-2.9
			c1.9-0.7,3.9-1.1,5.9-1.2c2-0.1,3.8,0,5.4,0.4v7.2c-2.1-0.5-4.3-0.6-6.7-0.4c-2.4,0.3-4.7,1.3-6.7,2.9c-1.9,1.5-3.3,3.2-4.2,5.2
			c-0.9,2-1.6,4.2-1.9,6.5c-0.3,2.3-0.5,4.5-0.5,6.8v28.1H380.9z"/>
		<path class="st0" d="M441.1,139.2c-5.2,0-9.7-1.3-13.6-3.9c-3.9-2.6-6.8-6.2-9-10.6c-2.1-4.5-3.2-9.5-3.2-15.2
			c0-5.7,1.1-10.8,3.2-15.3c2.1-4.5,5.2-8,9.1-10.6c3.9-2.6,8.6-3.9,13.9-3.9c5.4,0,9.8,1.3,13.5,3.9c3.6,2.6,6.4,6.1,8.3,10.6
			c1.9,4.5,2.8,9.6,2.8,15.2c0,5.6-0.9,10.6-2.8,15.1c-1.9,4.5-4.7,8.1-8.4,10.7C451.2,137.9,446.6,139.2,441.1,139.2z M443.1,127.9
			c3.4,0,6.1-0.8,8.2-2.3s3.6-3.7,4.5-6.5c1-2.8,1.4-6,1.4-9.6c0-3.7-0.5-6.9-1.4-9.7c-1-2.8-2.4-4.9-4.5-6.5
			c-2-1.5-4.6-2.3-7.8-2.3c-3.4,0-6.2,0.8-8.3,2.5c-2.2,1.7-3.8,3.9-4.8,6.7c-1,2.8-1.6,5.9-1.6,9.3c0,3.4,0.5,6.6,1.5,9.4
			c1,2.8,2.6,5,4.7,6.6C437.1,127.1,439.8,127.9,443.1,127.9z M457.2,137.6V98.1h-1.6V62.5h12.7v75.1H457.2z"/>
		<path class="st0" d="M498.6,139.2c-4.1,0-7.5-0.8-10.3-2.3c-2.8-1.5-4.9-3.6-6.4-6.2c-1.4-2.6-2.2-5.4-2.2-8.5
			c0-2.7,0.5-5.2,1.4-7.3s2.3-4,4.2-5.6c1.9-1.6,4.3-2.9,7.3-3.9c2.3-0.7,4.9-1.4,8-2c3-0.6,6.3-1.1,9.9-1.6
			c3.6-0.5,7.3-1.1,11.2-1.6l-4.5,2.6c0-3.9-0.8-6.8-2.6-8.6c-1.8-1.8-4.8-2.8-9-2.8c-2.5,0-5,0.6-7.4,1.8c-2.4,1.2-4,3.2-5,6.1
			l-11.5-3.6c1.4-4.8,4-8.6,8-11.5c3.9-2.9,9.2-4.3,15.8-4.3c5,0,9.4,0.8,13.2,2.5c3.8,1.6,6.6,4.3,8.5,8c1,2,1.6,4,1.8,6.1
			c0.2,2.1,0.3,4.3,0.3,6.8v34.6h-11v-12.2l1.8,2c-2.5,4.1-5.5,7-8.9,8.9S503.7,139.2,498.6,139.2z M501.1,129.2
			c2.9,0,5.3-0.5,7.3-1.5c2-1,3.6-2.2,4.8-3.7c1.2-1.5,2-2.8,2.4-4.1c0.7-1.6,1-3.4,1.1-5.5c0.1-2.1,0.1-3.7,0.1-5l3.9,1.1
			c-3.8,0.6-7,1.1-9.8,1.6c-2.7,0.5-5,0.9-7,1.3c-1.9,0.4-3.7,0.8-5.2,1.3c-1.5,0.5-2.7,1.1-3.7,1.8c-1,0.7-1.8,1.5-2.3,2.4
			c-0.5,0.9-0.8,2-0.8,3.2c0,1.4,0.3,2.6,1,3.7c0.7,1.1,1.7,1.9,3.1,2.5C497.5,128.8,499.2,129.2,501.1,129.2z"/>
		<path class="st0" d="M534.6,91.1v-9.9h39.3v9.9H534.6z M573.9,137.6c-3.7,0.7-7.4,1-10.9,0.9s-6.8-0.7-9.6-2
			c-2.8-1.2-5-3.2-6.4-5.9c-1.3-2.4-2-4.9-2-7.5c-0.1-2.5-0.1-5.4-0.1-8.6v-49h12.5v48.2c0,2.3,0,4.2,0.1,5.9
			c0.1,1.7,0.4,3.1,1.1,4.2c1.3,2.1,3.2,3.3,6,3.5s5.9,0.1,9.4-0.4V137.6z"/>
		<path class="st0" d="M601.8,139.2c-4.1,0-7.5-0.8-10.3-2.3c-2.8-1.5-4.9-3.6-6.4-6.2c-1.4-2.6-2.2-5.4-2.2-8.5
			c0-2.7,0.5-5.2,1.4-7.3s2.3-4,4.2-5.6c1.9-1.6,4.3-2.9,7.3-3.9c2.3-0.7,4.9-1.4,8-2c3-0.6,6.3-1.1,9.9-1.6
			c3.6-0.5,7.3-1.1,11.2-1.6l-4.5,2.6c0-3.9-0.8-6.8-2.6-8.6c-1.8-1.8-4.8-2.8-9-2.8c-2.5,0-5,0.6-7.4,1.8c-2.4,1.2-4,3.2-5,6.1
			l-11.5-3.6c1.4-4.8,4-8.6,8-11.5c3.9-2.9,9.2-4.3,15.8-4.3c5,0,9.4,0.8,13.2,2.5c3.8,1.6,6.6,4.3,8.5,8c1,2,1.6,4,1.8,6.1
			c0.2,2.1,0.3,4.3,0.3,6.8v34.6h-11v-12.2l1.8,2c-2.5,4.1-5.5,7-8.9,8.9S606.9,139.2,601.8,139.2z M604.3,129.2
			c2.9,0,5.3-0.5,7.3-1.5c2-1,3.6-2.2,4.8-3.7c1.2-1.5,2-2.8,2.4-4.1c0.7-1.6,1-3.4,1.1-5.5c0.1-2.1,0.1-3.7,0.1-5l3.9,1.1
			c-3.8,0.6-7,1.1-9.8,1.6c-2.7,0.5-5,0.9-7,1.3c-1.9,0.4-3.7,0.8-5.2,1.3c-1.5,0.5-2.7,1.1-3.7,1.8c-1,0.7-1.8,1.5-2.3,2.4
			c-0.5,0.9-0.8,2-0.8,3.2c0,1.4,0.3,2.6,1,3.7c0.7,1.1,1.7,1.9,3.1,2.5C600.6,128.8,602.3,129.2,604.3,129.2z"/>
	</g>
	<g>
		<polygon class="st1" points="150.5,130.3 149.8,159.7 79.2,113.9 79.9,85.1 		"/>
		<polygon class="st2" points="7.2,126.7 6.4,156.2 79.2,113.9 79.9,85.1 		"/>
		<polygon class="st1" points="6.4,156.2 7.2,126.8 77.8,172.6 77,201.4 		"/>
		<polygon class="st2" points="149.8,159.8 150.5,130.3 77.8,172.6 77,201.4 		"/>
	</g>
	<g>
		<g>
			<polygon class="st3" points="151.4,90.9 151.4,120.4 79.8,76.3 79.8,47.5 			"/>
			<polygon class="st4" points="8,90.9 8,120.4 79.8,76.3 79.8,47.5 			"/>
			<polygon class="st3" points="8,120.4 8,91 79.8,135.1 79.8,163.9 			"/>
		</g>
		<polygon class="st4" points="151.4,120.4 151.4,91 79.8,135.1 79.8,163.9 		"/>
	</g>
	<g>
		<polygon class="st5" points="153,55.2 152.3,84.6 81.7,38.8 82.4,10 		"/>
		<polygon class="st6" points="9.7,51.6 8.9,81.1 81.7,38.8 82.4,10 		"/>
		<polygon class="st5" points="8.9,81.1 9.7,51.7 80.3,97.5 79.5,126.3 		"/>
		<polygon class="st6" points="152.3,84.7 153,55.2 80.3,97.5 79.5,126.3 		"/>
	</g>
</g>
</svg>
