<svg width="54" height="54" viewBox="0 0 54 54" fill="none" xmlns="http://www.w3.org/2000/svg">
<g clip-path="url(#clip0_26_316)">
<path d="M32.2946 8.70562V37.5671L32.2862 37.5905L12.3325 30.0282V16.2445L32.2862 8.68347L32.2946 8.70562Z" fill="#FFE485"/>
<path d="M43.4452 19.6308L39.7037 17.2845V10.8329C39.7037 7.87905 36.7289 5.84193 33.9735 6.91655C31.9856 7.6698 13.9809 14.492 12.1392 15.1897H7.94707C3.56505 15.1898 0 18.7549 0 23.1369C0 26.9415 2.68871 30.1286 6.26569 30.9022V44.494C6.26569 46.0821 7.55768 47.3743 9.14593 47.3743H14.8739C16.8133 47.3743 18.1973 45.501 17.6267 43.6471L16.0744 38.602H17.61C19.4278 38.602 20.9065 37.1235 20.9065 35.3064V34.4054C26.8875 36.6719 33.7109 39.2578 33.9735 39.3573C36.7223 40.4281 39.7037 38.3991 39.7037 35.4397V28.9935L43.4385 26.6904C43.7499 26.4983 43.9395 26.1586 43.9395 25.7926V20.5242C43.9395 20.1612 43.7528 19.8235 43.4452 19.6308ZM2.10938 23.1369C2.10938 19.9179 4.72816 17.2991 7.94707 17.2991H11.2778V19.9902H5.82019C5.23768 19.9902 4.7655 20.4624 4.7655 21.0449C4.7655 21.6273 5.23768 22.0996 5.82019 22.0996H11.2779V24.2262H5.82019C5.23768 24.2262 4.7655 24.6985 4.7655 25.2809C4.7655 25.8633 5.23768 26.3356 5.82019 26.3356H11.2779V28.9735H7.94707C4.72816 28.9735 2.10938 26.3553 2.10938 23.1369ZM14.8739 45.2649H9.14593C8.7209 45.2649 8.37506 44.9191 8.37506 44.494V31.0834H11.554C12.0331 32.6405 15.2055 42.9509 15.6106 44.2675C15.7633 44.7635 15.393 45.2649 14.8739 45.2649ZM18.7972 35.3064C18.7972 35.9604 18.2646 36.4926 17.61 36.4926H15.4253L13.9748 31.7785C15.2061 32.2451 16.9053 32.889 18.7972 33.606V35.3064ZM37.5943 35.4398C37.5943 36.8629 36.177 37.9417 34.726 37.3868C34.558 37.3232 17.0819 30.7003 13.3871 29.3001C13.3871 27.9874 13.3871 18.1743 13.3871 16.9727C13.6211 16.8841 34.726 8.88723 34.7369 8.88301C36.1098 8.3447 37.5943 9.35319 37.5943 10.8329V35.4398ZM41.8302 25.204L39.7037 26.5154V19.7743L41.8302 21.1079V25.204Z" fill="#03010D"/>
<path d="M47.1206 24.1912H52.9451C53.5275 24.1912 53.9998 23.719 53.9998 23.1365C53.9998 22.5541 53.5275 22.0818 52.9451 22.0818H47.1206C46.5382 22.0818 46.0659 22.5541 46.0659 23.1365C46.0659 23.7189 46.5382 24.1912 47.1206 24.1912Z" fill="#03010D"/>
<path d="M47.121 17.8636C47.3741 17.8636 47.6281 17.7731 47.8301 17.5892L53.6547 12.2944C54.0857 11.9026 54.1175 11.2356 53.7256 10.8045C53.3337 10.3735 52.6668 10.3416 52.2358 10.7336L46.4113 16.0284C45.6986 16.6763 46.1621 17.8636 47.121 17.8636Z" fill="#03010D"/>
<path d="M47.8301 28.7364C47.399 28.3444 46.7321 28.3763 46.3402 28.8074C45.9484 29.2384 45.9801 29.9055 46.4112 30.2973L52.2357 35.5923C52.6656 35.9832 53.3328 35.9534 53.7255 35.5214C54.1174 35.0904 54.0856 34.4233 53.6546 34.0316L47.8301 28.7364Z" fill="#03010D"/>
</g>
<defs>
<clipPath id="clip0_26_316">
<rect width="54" height="54" fill="white"/>
</clipPath>
</defs>
</svg>
