<svg width="16" height="14" viewBox="0 0 16 14" fill="none" xmlns="http://www.w3.org/2000/svg">
<g id="content">
<path id="Vector 4531" d="M8 3L8 12.3333" stroke="#03010D" stroke-linecap="round"/>
<path id="Vector" d="M3.9872 1.19029C6.21466 1.6144 7.54224 2.50154 8.00016 3.01086C8.45809 2.50154 9.78566 1.6144 12.0131 1.19029C13.1416 0.975436 13.7058 0.868008 14.1863 1.27976C14.6668 1.69152 14.6668 2.36015 14.6668 3.69741V8.50331C14.6668 9.72604 14.6668 10.3374 14.3584 10.7191C14.05 11.1008 13.3711 11.2301 12.0131 11.4886C10.8026 11.7191 9.85787 12.0864 9.17404 12.4554C8.50124 12.8185 8.16483 13 8.00016 13C7.8355 13 7.49908 12.8185 6.82628 12.4554C6.14246 12.0864 5.19772 11.7191 3.9872 11.4886C2.62926 11.2301 1.95029 11.1008 1.64189 10.7191C1.3335 10.3374 1.3335 9.72604 1.3335 8.50331V3.69741C1.3335 2.36015 1.3335 1.69152 1.81402 1.27976C2.29454 0.868008 2.85876 0.975436 3.9872 1.19029Z" stroke="#03010D" stroke-linecap="round" stroke-linejoin="round"/>
</g>
</svg>
