<svg width="16" height="14" viewBox="0 0 16 14" fill="none" xmlns="http://www.w3.org/2000/svg">
<g id="content">
<path id="Vector 5331" d="M1.3335 4.33333C1.3335 5.22785 6.73761 7.66667 8.00016 7.66667C9.26272 7.66667 14.6668 5.22785 14.6668 4.33333C14.6668 3.43881 9.26272 1 8.00016 1C6.73761 1 1.3335 3.43881 1.3335 4.33333Z" stroke="#0F121C" stroke-linecap="round" stroke-linejoin="round"/>
<path id="Vector" d="M4 6.33325L4.16363 10.0865C4.16691 10.1617 4.17504 10.2369 4.19685 10.3089C4.26426 10.5315 4.3885 10.7337 4.57804 10.8695C6.06108 11.9323 9.93892 11.9323 11.422 10.8695C11.6115 10.7337 11.7357 10.5315 11.8031 10.3089C11.825 10.2369 11.8331 10.1617 11.8364 10.0865L12 6.33325" stroke="#0F121C" stroke-linecap="round" stroke-linejoin="round"/>
<path id="Vector_2" d="M14.1665 5.33325C14.1665 5.05711 13.9426 4.83325 13.6665 4.83325C13.3904 4.83325 13.1665 5.05711 13.1665 5.33325H14.1665ZM12.7141 12.1755L13.2006 12.2911L12.7141 12.1755ZM14.6189 12.1755L15.1053 12.06L14.6189 12.1755ZM13.1665 5.33325V10.0047H14.1665V5.33325H13.1665ZM13.2006 12.2911C13.2972 11.8846 13.4633 11.5131 13.6411 11.1651C13.804 10.8464 14.0173 10.4775 14.1315 10.1884L13.2015 9.82105C13.1102 10.0522 12.9575 10.3053 12.7506 10.7101C12.5586 11.0858 12.3513 11.5396 12.2277 12.06L13.2006 12.2911ZM15.1053 12.06C14.9817 11.5396 14.7744 11.0858 14.5824 10.7101C14.3755 10.3053 14.2228 10.0522 14.1315 9.82105L13.2015 10.1884C13.3157 10.4775 13.529 10.8464 13.6919 11.1651C13.8697 11.5131 14.0358 11.8846 14.1324 12.2911L15.1053 12.06ZM13.8768 12.4999H13.4562V13.4999H13.8768V12.4999ZM12.2277 12.06C12.1454 12.4062 12.096 12.8642 12.4222 13.1913C12.5749 13.3445 12.7632 13.4164 12.9291 13.4532C13.0944 13.4899 13.2758 13.4999 13.4562 13.4999V12.4999C13.304 12.4999 13.2066 12.4904 13.1456 12.4769C13.0852 12.4635 13.0998 12.4546 13.1303 12.4852C13.1688 12.5238 13.1693 12.5598 13.1674 12.5396C13.1645 12.5083 13.1667 12.4335 13.2006 12.2911L12.2277 12.06ZM14.1324 12.2911C14.1663 12.4335 14.1685 12.5083 14.1656 12.5396C14.1637 12.5598 14.1642 12.5238 14.2027 12.4852C14.2332 12.4546 14.2479 12.4635 14.1874 12.4769C14.1264 12.4904 14.029 12.4999 13.8768 12.4999V13.4999C14.0572 13.4999 14.2386 13.4899 14.4039 13.4532C14.5698 13.4164 14.7581 13.3445 14.9109 13.1913C15.237 12.8642 15.1876 12.4062 15.1053 12.06L14.1324 12.2911Z" fill="#0F121C"/>
</g>
</svg>
