<?xml version="1.0" encoding="utf-8"?>
<!-- Generator: Adobe Illustrator 27.9.3, SVG Export Plug-In . SVG Version: 9.03 Build 53313)  -->
<svg version="1.1" id="Layer_1" xmlns="http://www.w3.org/2000/svg" xmlns:xlink="http://www.w3.org/1999/xlink" x="0px" y="0px"
	 viewBox="0 0 406.7 118.6" style="enable-background:new 0 0 406.7 118.6;" xml:space="preserve">
<style type="text/css">
	.st0{enable-background:new    ;}
	.st1{clip-path:url(#SVGID_00000129184780266074130470000017230939886514286496_);}
	.st2{fill:#FFE600;}
	.st3{clip-path:url(#SVGID_00000147216806649971835620000009270289028067531945_);}
	.st4{clip-path:url(#SVGID_00000025403111877088525560000015878815711814721929_);}
	.st5{clip-path:url(#SVGID_00000117646000955243551750000005213471284462261182_);}
</style>
<g>
	<g>
		<path d="M132.6,84.2c-2.6,0-4.9-0.5-6.6-1.4c-1.8-0.9-3.2-2.1-4.4-3.5v2.5c0,0.5-0.2,0.9-0.5,1.2c-0.3,0.3-0.7,0.5-1.2,0.5h-5.5
			c-0.5,0-0.9-0.2-1.2-0.5c-0.3-0.3-0.5-0.7-0.5-1.2V36.1c0-0.5,0.2-0.9,0.5-1.2c0.3-0.3,0.7-0.5,1.2-0.5h5.8c0.5,0,0.9,0.2,1.2,0.5
			s0.5,0.7,0.5,1.2v15.3c1.2-1.4,2.6-2.4,4.3-3.3c1.8-0.9,3.8-1.3,6.3-1.3c2.4,0,4.6,0.4,6.3,1.3c1.8,0.9,3.3,1.9,4.5,3.5
			c1.3,1.5,2.1,3.2,2.8,5.3c0.7,1.9,1,4.1,1.1,6.4c0,0.9,0.1,1.6,0.1,2.2s0,1.5-0.1,2.2c-0.1,2.4-0.5,4.6-1.1,6.6
			c-0.7,2-1.6,3.7-2.7,5.3c-1.2,1.5-2.7,2.6-4.5,3.4C137.1,83.7,135,84.2,132.6,84.2z M130,76.8c1.9,0,3.5-0.4,4.7-1.3
			c1.1-0.9,1.9-1.9,2.3-3.3c0.4-1.4,0.8-2.9,0.9-4.6c0.1-1.4,0.1-2.7,0-4.2c-0.1-1.7-0.4-3.2-0.9-4.6s-1.3-2.5-2.3-3.3
			c-1.1-0.9-2.6-1.3-4.7-1.3c-1.9,0-3.3,0.4-4.5,1.3c-1.2,0.9-2,1.9-2.6,3.1c-0.6,1.3-0.9,2.6-1,4c0,0.9-0.1,1.8-0.1,2.6
			c0,1,0,1.9,0.1,2.6c0.1,1.5,0.4,2.8,1,4.2c0.5,1.4,1.4,2.4,2.5,3.3C126.5,76.3,128.1,76.8,130,76.8z"/>
		<path d="M169.1,84.2c-5.1,0-9.2-1.5-12.2-4.4s-4.6-7.1-4.9-12.6c0-0.5-0.1-1.1-0.1-1.8c0-0.7,0-1.3,0.1-1.7c0.2-3.4,1-6.4,2.3-9
			s3.3-4.5,5.8-5.8s5.5-2,8.8-2c3.7,0,6.8,0.8,9.3,2.3c2.5,1.6,4.5,3.7,5.7,6.4c1.3,2.7,1.9,5.9,1.9,9.5v1.5c0,0.5-0.2,0.9-0.5,1.2
			c-0.3,0.3-0.8,0.5-1.3,0.5h-22.9c0,0.3,0,0.5,0,0.6c0,1.7,0.4,3.1,1,4.5c0.6,1.4,1.5,2.4,2.5,3.3c1.2,0.9,2.4,1.3,4,1.3
			c1.3,0,2.3-0.2,3.2-0.6c0.9-0.4,1.6-0.9,2.1-1.4c0.6-0.5,1-0.9,1.2-1.3c0.4-0.6,0.8-0.9,1-1c0.3-0.1,0.6-0.2,1.2-0.2h5.9
			c0.5,0,0.9,0.1,1.2,0.4c0.3,0.3,0.4,0.6,0.4,1.1c0,0.8-0.4,1.7-1.2,2.7c-0.7,1.1-1.8,2.1-3.1,3.1c-1.4,1-3,1.9-5,2.5
			C174,83.8,171.7,84.2,169.1,84.2z M161.5,62.4h15.3v-0.2c0-1.8-0.3-3.4-0.9-4.7c-0.6-1.4-1.5-2.4-2.6-3.2
			c-1.2-0.8-2.5-1.2-4.2-1.2s-3,0.4-4.2,1.2c-1.2,0.8-2,1.9-2.6,3.2c-0.6,1.4-0.9,2.9-0.9,4.7L161.5,62.4L161.5,62.4z"/>
		<path d="M207.6,84.2c-5.1,0-9.2-1.5-12.2-4.4c-3-2.9-4.6-7.1-4.9-12.6c0-0.5-0.1-1.1-0.1-1.8c0-0.7,0-1.3,0.1-1.7
			c0.2-3.4,1-6.4,2.3-9s3.3-4.5,5.8-5.8s5.5-2,8.8-2c3.7,0,6.8,0.8,9.3,2.3c2.5,1.6,4.5,3.7,5.7,6.4c1.3,2.7,1.9,5.9,1.9,9.5v1.5
			c0,0.5-0.2,0.9-0.5,1.2c-0.3,0.3-0.8,0.5-1.3,0.5h-22.9c0,0.3,0,0.5,0,0.6c0,1.7,0.4,3.1,1,4.5c0.6,1.4,1.5,2.4,2.5,3.3
			c1.2,0.9,2.4,1.3,4,1.3c1.3,0,2.3-0.2,3.2-0.6c0.9-0.4,1.6-0.9,2.1-1.4c0.6-0.5,1-0.9,1.2-1.3c0.4-0.6,0.8-0.9,1-1
			c0.3-0.1,0.6-0.2,1.2-0.2h5.9c0.5,0,0.9,0.1,1.2,0.4c0.3,0.3,0.4,0.6,0.4,1.1c0,0.8-0.4,1.7-1.2,2.7c-0.7,1.1-1.8,2.1-3.1,3.1
			c-1.4,1-3,1.9-5,2.5C212.4,83.8,210.2,84.2,207.6,84.2z M200,62.4h15.3v-0.2c0-1.8-0.3-3.4-0.9-4.7c-0.6-1.4-1.5-2.4-2.6-3.2
			c-1.2-0.8-2.5-1.2-4.2-1.2c-1.7,0-3,0.4-4.2,1.2c-1.2,0.8-2,1.9-2.6,3.2c-0.6,1.4-0.9,2.9-0.9,4.7L200,62.4L200,62.4z"/>
		<path d="M233.2,83.5c-0.5,0-0.9-0.1-1.1-0.4c-0.3-0.3-0.4-0.7-0.4-1.1V35.9c0-0.5,0.1-0.9,0.4-1.1c0.3-0.3,0.7-0.4,1.1-0.4h1.2
			c0.5,0,0.9,0.1,1.1,0.4c0.3,0.3,0.4,0.7,0.4,1.1v16.4c1.3-1.7,2.7-2.9,4.5-3.9s4.1-1.6,7.1-1.6c3.1,0,5.7,0.7,7.9,2
			c2.1,1.4,3.7,3.2,4.7,5.6c1.1,2.3,1.6,5,1.6,7.9v19.6c0,0.5-0.1,0.9-0.4,1.1c-0.3,0.3-0.7,0.4-1.1,0.4h-1.2
			c-0.5,0-0.9-0.1-1.1-0.4c-0.3-0.3-0.4-0.7-0.4-1.1V62.7c0-3.7-0.9-6.6-2.7-8.7c-1.8-2.1-4.4-3.1-7.9-3.1c-3.3,0-5.9,1.1-7.9,3.1
			c-2,2.1-3,5-3,8.7V82c0,0.5-0.1,0.9-0.4,1.1c-0.3,0.3-0.7,0.4-1.1,0.4C234.4,83.5,233.2,83.5,233.2,83.5z"/>
		<path d="M282,84.2c-3.3,0-6.1-0.7-8.3-2c-2.2-1.4-3.9-3.3-5.1-5.6c-1.2-2.4-1.9-5.1-1.9-8c0-0.7-0.1-1.7-0.1-2.9s0-2.2,0.1-2.9
			c0.1-3,0.7-5.6,1.9-8.1c1.2-2.3,2.9-4.3,5.1-5.6c2.2-1.4,5-2,8.3-2c3.3,0,6.1,0.7,8.3,2c2.2,1.4,3.9,3.2,5.1,5.6
			c1.2,2.3,1.9,5.1,1.9,8.1c0,0.7,0.1,1.7,0.1,2.9s0,2.2-0.1,2.9c-0.1,2.9-0.7,5.6-1.9,8c-1.2,2.4-2.9,4.3-5.1,5.6
			C288.1,83.5,285.3,84.2,282,84.2z M282,80.1c3.2,0,5.8-1.1,7.9-3.1c2-2,3.1-5.1,3.2-9c0-0.7,0.1-1.6,0.1-2.5c0-1,0-1.9-0.1-2.5
			c-0.1-4-1.3-7-3.2-9.1c-2-2-4.7-3.1-7.9-3.1c-3.2,0-5.8,1.1-7.9,3.1c-2,2-3.1,5.1-3.2,9.1c0,0.7-0.1,1.6-0.1,2.5
			c0,1,0,1.9,0.1,2.5c0.1,3.9,1.3,6.9,3.2,9C276,79.1,278.7,80.1,282,80.1z"/>
		<path d="M316.1,84.2c-3.1,0-5.7-0.7-7.8-2c-2-1.4-3.6-3.2-4.6-5.6c-1-2.3-1.5-5-1.5-7.9V49.1c0-0.5,0.1-0.9,0.4-1.1
			c0.3-0.3,0.7-0.4,1.1-0.4h1.2c0.5,0,0.9,0.1,1.1,0.4c0.3,0.3,0.4,0.7,0.4,1.1v19.3c0,7.9,3.4,11.8,10.3,11.8
			c3.3,0,5.9-1.1,7.9-3.1c1.9-2.1,2.9-5,2.9-8.7V49.1c0-0.5,0.1-0.9,0.4-1.1c0.3-0.3,0.7-0.4,1.1-0.4h1.2c0.5,0,0.9,0.1,1.1,0.4
			c0.3,0.3,0.4,0.7,0.4,1.1V82c0,0.5-0.1,0.9-0.4,1.1c-0.3,0.3-0.7,0.4-1.1,0.4H329c-0.5,0-0.9-0.1-1.1-0.4
			c-0.3-0.3-0.4-0.7-0.4-1.1v-3.2c-1.3,1.7-2.7,2.9-4.5,3.9C321.5,83.6,319.2,84.2,316.1,84.2z"/>
		<path d="M353.1,84.2c-2.4,0-4.5-0.3-6.1-1c-1.8-0.7-3.1-1.5-4.3-2.3c-1.2-0.9-1.9-1.8-2.4-2.6s-0.8-1.6-0.9-2
			c0-0.5,0.1-0.9,0.5-1.2c0.4-0.3,0.7-0.4,1.1-0.4h1.1c0.3,0,0.5,0,0.7,0.1c0.2,0.1,0.5,0.4,0.8,0.8c0.6,0.8,1.3,1.6,2,2.2
			c0.8,0.7,1.8,1.3,3,1.7s2.7,0.6,4.6,0.6c2.7,0,5.1-0.5,6.8-1.6s2.7-2.6,2.7-4.7c0-1.3-0.4-2.3-1.1-3.1c-0.7-0.8-1.9-1.5-3.6-2
			c-1.8-0.6-4-1.3-6.9-1.9c-2.9-0.7-5.2-1.6-6.6-2.5c-1.6-1-2.6-2-3.1-3.3c-0.6-1.3-0.9-2.6-0.9-4.1c0-1.7,0.5-3.2,1.4-4.8
			c0.9-1.6,2.3-2.8,4.1-3.8c1.9-1,4.1-1.5,6.9-1.5c2.2,0,4.2,0.3,5.7,0.9c1.6,0.6,2.9,1.4,3.9,2.1c1,0.9,1.8,1.7,2.2,2.5
			c0.5,0.9,0.8,1.5,0.8,2c0,0.5-0.1,0.9-0.4,1.1c-0.3,0.3-0.7,0.4-1.1,0.4H363c-0.4,0-0.7-0.1-0.9-0.2c-0.2-0.2-0.5-0.4-0.6-0.7
			c-0.5-0.8-1-1.5-1.7-2c-0.7-0.7-1.5-1.2-2.6-1.6c-1.1-0.4-2.5-0.6-4.4-0.6c-2.7,0-4.8,0.6-6.1,1.7c-1.4,1.2-2,2.5-2,4.3
			c0,1,0.3,1.9,0.9,2.6c0.6,0.7,1.6,1.5,3.1,2c1.6,0.6,3.7,1.3,6.6,1.9s5.3,1.5,7,2.3c1.7,1,2.9,2,3.6,3.3c0.7,1.3,1.1,2.8,1.1,4.6
			c0,1.9-0.5,3.5-1.6,5.1c-1.1,1.6-2.5,2.8-4.7,3.8C358.6,83.7,356.1,84.2,353.1,84.2z"/>
		<path d="M387.6,84.2c-4.5,0-8-1.5-10.6-4.4s-4.1-6.7-4.5-11.5c0-0.7-0.1-1.7-0.1-2.7c0-1.2,0-2,0.1-2.7c0.2-3.1,1-5.9,2.2-8.3
			c1.3-2.4,2.9-4.3,5.2-5.6c2.1-1.4,4.8-2,7.8-2c3.2,0,5.9,0.7,8.2,2.1c2.2,1.5,4,3.5,5.3,6.1c1.3,2.6,1.9,5.8,1.9,9.5v1.1
			c0,0.5-0.2,0.9-0.5,1.1c-0.3,0.3-0.7,0.4-1.2,0.4h-24.6c0,0.4,0,0.6,0,0.7c0.1,2,0.6,4,1.5,5.9c0.9,1.9,2.1,3.4,3.7,4.6
			c1.7,1.2,3.5,1.8,5.7,1.8c1.9,0,3.6-0.3,5-0.9c1.3-0.6,2.3-1.3,3.1-1.9c0.8-0.7,1.3-1.3,1.6-1.7c0.4-0.6,0.8-1,1-1.1
			c0.2-0.1,0.6-0.2,1.1-0.2h1.1c0.4,0,0.8,0.1,1.1,0.4c0.3,0.3,0.4,0.6,0.4,1c0,0.7-0.4,1.5-1.1,2.3c-0.7,1-1.7,1.9-2.8,2.8
			c-1.3,0.9-2.7,1.7-4.5,2.2C391.8,83.8,389.9,84.2,387.6,84.2z M376.7,63.4h22v-0.3c0-2.3-0.4-4.4-1.3-6.2
			c-0.9-1.9-2.1-3.3-3.8-4.4c-1.7-1.1-3.6-1.7-5.9-1.7s-4.3,0.6-5.9,1.7c-1.7,1.1-2.9,2.5-3.7,4.4c-0.9,1.9-1.3,3.9-1.3,6.2
			L376.7,63.4L376.7,63.4z"/>
	</g>
	<g>
		<g>
			<g>
				<g class="st0">
					<g>
						<defs>
							<polygon id="SVGID_1_" points="49.5,117 49.3,65.9 93.8,40.2 94,91.3 							"/>
						</defs>
						<clipPath id="SVGID_00000113351381174479642190000014428299061895038601_">
							<use xlink:href="#SVGID_1_"  style="overflow:visible;"/>
						</clipPath>
						<g style="clip-path:url(#SVGID_00000113351381174479642190000014428299061895038601_);">
							<polyline points="93.8,40.2 49.3,65.9 49.5,117 94,91.3 94,82.9 49.5,108.6 49.4,97.1 93.9,71.5 93.9,61.4 49.4,87.2 
								49.4,75.7 93.9,50 93.8,40.2 							"/>
							<polyline class="st2" points="93.9,71.5 49.4,97.1 49.5,108.6 94,82.9 93.9,71.5 							"/>
							<polyline class="st2" points="93.9,50 49.4,75.7 49.4,87.2 93.9,61.4 93.9,50 							"/>
						</g>
					</g>
				</g>
			</g>
			<g>
				<g class="st0">
					<g>
						<defs>
							<polygon id="SVGID_00000160871336828539510180000010877819014292426913_" points="5,91.3 5.1,40.2 49.6,65.9 49.5,117 
															"/>
						</defs>
						<clipPath id="SVGID_00000140015344301523187560000001234755803513624743_">
							<use xlink:href="#SVGID_00000160871336828539510180000010877819014292426913_"  style="overflow:visible;"/>
						</clipPath>
						<g style="clip-path:url(#SVGID_00000140015344301523187560000001234755803513624743_);">
							<polyline points="49.6,65.9 5.1,40.2 5,91.3 49.5,117 49.5,108.6 5,82.9 5.1,71.5 49.6,97.1 49.6,87.2 5.1,61.4 5.1,50 
								49.6,75.7 49.6,65.9 							"/>
							<polyline class="st2" points="49.6,97.1 5.1,71.5 5,82.9 49.5,108.6 49.6,97.1 							"/>
							<polyline class="st2" points="49.6,75.7 5.1,50 5.1,61.4 49.6,87.2 49.6,75.7 							"/>
						</g>
					</g>
				</g>
			</g>
			<g>
				<g class="st0">
					<g>
						<defs>
							<polygon id="SVGID_00000138533453208728532480000008780333498609878154_" points="5.2,40.2 49.3,14.5 93.8,40.2 49.6,65.9 
															"/>
						</defs>
						<clipPath id="SVGID_00000089547756857055000730000016112005839043810740_">
							<use xlink:href="#SVGID_00000138533453208728532480000008780333498609878154_"  style="overflow:visible;"/>
						</clipPath>
						<g style="clip-path:url(#SVGID_00000089547756857055000730000016112005839043810740_);">
							<polygon class="st2" points="93.8,40.2 49.6,65.9 5.2,40.2 49.3,14.5 							"/>
						</g>
					</g>
				</g>
			</g>
			<polygon points="67,107 67,85.5 80,76.8 80.1,99.4 			"/>
		</g>
		<g>
			<g class="st0">
				<g>
					<defs>
						<polygon id="SVGID_00000160163036000368970650000009867598284291391158_" points="34.7,41.6 48.9,33.4 63.2,41.6 49,49.9 
													"/>
					</defs>
					<clipPath id="SVGID_00000176728316838915868600000012729518303174458761_">
						<use xlink:href="#SVGID_00000160163036000368970650000009867598284291391158_"  style="overflow:visible;"/>
					</clipPath>
					<g style="clip-path:url(#SVGID_00000176728316838915868600000012729518303174458761_);">
						<path d="M56.1,37.5c-3.9-2.2-10.3-2.2-14.2,0s-3.9,5.9,0,8.3c4,2.2,10.3,2.2,14.2,0C60,43.4,60,39.7,56.1,37.5"/>
					</g>
				</g>
			</g>
		</g>
		<polygon points="43,42.4 49,1.6 55,42.4 		"/>
	</g>
</g>
</svg>
