<svg width="16" height="16" viewBox="0 0 16 16" fill="none" xmlns="http://www.w3.org/2000/svg">
<g id="content">
<circle id="Ellipse 1244" cx="8.00016" cy="7.99992" r="6.66667" stroke="#03010D"/>
<path id="Vector" d="M8.5 4.66675C8.5 4.39061 8.27614 4.16675 8 4.16675C7.72386 4.16675 7.5 4.39061 7.5 4.66675H8.5ZM9.35355 8.64653C9.15829 8.45127 8.84171 8.45127 8.64645 8.64653C8.45118 8.84179 8.45118 9.15837 8.64645 9.35363L9.35355 8.64653ZM9.64645 10.3536C9.84171 10.5489 10.1583 10.5489 10.3536 10.3536C10.5488 10.1584 10.5488 9.84179 10.3536 9.64653L9.64645 10.3536ZM7.5 4.66675V7.00008H8.5V4.66675H7.5ZM8.64645 9.35363L9.64645 10.3536L10.3536 9.64653L9.35355 8.64653L8.64645 9.35363ZM8.5 8.00008C8.5 8.27622 8.27614 8.50008 8 8.50008V9.50008C8.82843 9.50008 9.5 8.82851 9.5 8.00008H8.5ZM8 8.50008C7.72386 8.50008 7.5 8.27622 7.5 8.00008H6.5C6.5 8.82851 7.17157 9.50008 8 9.50008V8.50008ZM7.5 8.00008C7.5 7.72394 7.72386 7.50008 8 7.50008V6.50008C7.17157 6.50008 6.5 7.17165 6.5 8.00008H7.5ZM8 7.50008C8.27614 7.50008 8.5 7.72394 8.5 8.00008H9.5C9.5 7.17165 8.82843 6.50008 8 6.50008V7.50008Z" fill="#03010D"/>
</g>
</svg>
